<?xml version="1.0" encoding="utf-8"?>
<svg version="1.1" xmlns="http://www.w3.org/2000/svg" xmlns:xlink="http://www.w3.org/1999/xlink" x="0px" y="0px"
	 viewBox="0 0 500 60" style="enable-background:new 0 0 500 60;" xml:space="preserve">
<g>
	<path d="M119.99,0c0,20,0,40,0,60h2.5c0-20,0-40,0-60H119.99z"/>
	<path d="M147.49,0c0,20,0,40,0,60h2.5c0-20,0-40,0-60H147.49z"/>
	<path d="M165,0c0,20,0,40,0,60h5c0-20,0-40,0-60H165z"/>
	<path d="M172.5,0c0,20,0,40,0,60h7.5c0-20,0-40,0-60H172.5z"/>
	<path d="M124.99,0c0,20,0,40,0,60h7.5c0-20,0-40,0-60H124.99z"/>
	<path d="M137.49,0c0,20,0,40,0,60h5c0-20,0-40,0-60H137.49z"/>
	<path d="M154.99,0c0,20,0,40,0,60h7.5c0-20,0-40,0-60H154.99z"/>
	<path d="M207.5,0c0,20,0,40,0,60h5c0-20,0-40,0-60H207.5z"/>
	<path d="M220,0c0,20,0,40,0,60h2.5c0-20,0-40,0-60H220z"/>
	<path d="M230,0c0,20,0,40,0,60h2.5c0-20,0-40,0-60H230z"/>
	<path d="M192.5,0c0,20,0,40,0,60h2.5c0-20,0-40,0-60H192.5z"/>
	<path d="M185,0c0,20,0,40,0,60h2.5c0-20,0-40,0-60H185z"/>
	<path d="M197.5,0c0,20,0,40,0,60h2.5c0-20,0-40,0-60H197.5z"/>
	<path d="M109.99,0c0,20,0,40,0,60h5c0-20,0-40,0-60H109.99z"/>
	<path d="M19.99,0c0,20,0,40,0,60h2.5c0-20,0-40,0-60H19.99z"/>
	<path d="M44.99,0c0,20,0,40,0,60h5c0-20,0-40,0-60H44.99z"/>
	<path d="M34.99,0c0,20,0,40,0,60h7.5c0-20,0-40,0-60H34.99z"/>
	<path d="M27.49,0c0,20,0,40,0,60h2.5c0-20,0-40,0-60H27.49z"/>
	<path d="M235,0c0,20,0,40,0,60h5c0-20,0-40,0-60H235z"/>
	<path d="M0,0v60h4.99c0-20,0-40,0-60H0z"/>
	<path d="M7.49,0c0,20,0,40,0,60h2.5c0-20,0-40,0-60H7.49z"/>
	<path d="M82.49,0c0,20,0,40,0,60h5c0-20,0-40,0-60H82.49z"/>
	<path d="M54.99,0c0,20,0,40,0,60h2.5c0-20,0-40,0-60H54.99z"/>
	<path d="M104.99,0c0,20,0,40,0,60h2.5c0-20,0-40,0-60H104.99z"/>
	<path d="M92.49,0c0,20,0,40,0,60h7.5c0-20,0-40,0-60H92.49z"/>
	<path d="M62.49,0c0,20,0,40,0,60h7.5c0-20,0-40,0-60H62.49z"/>
	<path d="M74.99,0c0,20,0,40,0,60h5c0-20,0-40,0-60H74.99z"/>
	<path d="M385.01,0c0,20,0,40,0,60h2.5c0-20,0-40,0-60H385.01z"/>
	<path d="M420.01,0c0,20,0,40,0,60h2.5c0-20,0-40,0-60H420.01z"/>
	<path d="M412.51,0c0,20,0,40,0,60h2.5c0-20,0-40,0-60H412.51z"/>
	<path d="M427.51,0c0,20,0,40,0,60h5c0-20,0-40,0-60H427.51z"/>
	<path d="M392.51,0c0,20,0,40,0,60h2.5c0-20,0-40,0-60H392.51z"/>
	<path d="M402.51,0c0,20,0,40,0,60h5c0-20,0-40,0-60H402.51z"/>
	<path d="M440.01,0c0,20,0,40,0,60h2.5c0-20,0-40,0-60H440.01z"/>
	<path d="M462.51,0c0,20,0,40,0,60h2.5c0-20,0-40,0-60H462.51z"/>
	<path d="M450.01,0c0,20,0,40,0,60h5c0-20,0-40,0-60H450.01z"/>
	<path d="M490.01,0c0,20,0,40,0,60h2.5c0-20,0-40,0-60H490.01z"/>
	<path d="M495.01,0c0,20,0,40,0,60H500V0H495.01z"/>
	<path d="M480.01,0c0,20,0,40,0,60h7.5c0-20,0-40,0-60H480.01z"/>
	<path d="M375.01,0c0,20,0,40,0,60h5c0-20,0-40,0-60H375.01z"/>
	<path d="M467.51,0c0,20,0,40,0,60h5c0-20,0-40,0-60H467.51z"/>
	<path d="M320,0c0,20,0,40,0,60h2.5c0-20,0-40,0-60H320z"/>
	<path d="M280,0c0,20,0,40,0,60h5c0-20,0-40,0-60H280z"/>
	<path d="M292.5,0c0,20,0,40,0,60h2.5c0-20,0-40,0-60H292.5z"/>
	<path d="M275,0c0,20,0,40,0,60h2.5c0-20,0-40,0-60H275z"/>
	<path d="M257.5,0c0,20,0,40,0,60h2.5c0-20,0-40,0-60H257.5z"/>
	<path d="M267.5,0c0,20,0,40,0,60h5c0-20,0-40,0-60H267.5z"/>
	<path d="M302.5,0c0,20,0,40,0,60h2.5c0-20,0-40,0-60H302.5z"/>
	<path d="M330,0c0,20,0,40,0,60h2.5c0-20,0-40,0-60H330z"/>
	<path d="M312.5,0c0,20,0,40,0,60h5c0-20,0-40,0-60H312.5z"/>
	<path d="M352.51,0c0,20,0,40,0,60h2.5c0-20,0-40,0-60H352.51z"/>
	<path d="M357.51,0c0,20,0,40,0,60h2.5c0-20,0-40,0-60H357.51z"/>
	<path d="M340,0c0,20,0,40,0,60h5c0-20,0-40,0-60H340z"/>
	<path d="M247.5,0c0,20,0,40,0,60h2.5c0-20,0-40,0-60H247.5z"/>
	<path d="M367.51,0c0,20,0,40,0,60h2.5c0-20,0-40,0-60H367.51z"/>
</g>
</svg>
