<?xml version="1.0" encoding="utf-8"?>
<!-- Generator: Adobe Illustrator 25.2.1, SVG Export Plug-In . SVG Version: 6.00 Build 0)  -->
<svg version="1.1" id="Layer_1" xmlns="http://www.w3.org/2000/svg" xmlns:xlink="http://www.w3.org/1999/xlink" x="0px" y="0px"
	 viewBox="0 0 400 512" style="enable-background:new 0 0 400 512;" xml:space="preserve">
<path d="M143.55,457.94v-34.92c0-5.38-4.36-9.74-9.74-9.74H93.29c-5.91,0-11.06-4.04-12.47-9.78c-3.95-16.16-7.86-32.06-11.84-47.89
	c-17.92-72.33-36.6-144.44-53.43-217.1C8.06,105.83,6,72.16,12.63,38.82c1.3-6.73,4.78-13.14,8.04-19.22
	c3.26-6.19,9.45-8.25,16.07-8.47c10.32-0.22,20.63,0,30.95-0.11c4.34,0,6.73,2.61,7.93,6.19c3.48,10.75,7.6,21.39,9.77,32.36
	c7.39,37.36,14.01,74.83,20.85,112.19c4.56,24.98,8.91,49.85,13.36,75.37c2.61,0,4.89,0,7.06,0c64.29,0,128.59,0,192.88,0
	c7.49,0,14.88,0.76,20.63,6.3c6.19,5.97,9.45,13.25,6.41,21.94c-3.37,9.45-10.43,14.55-20.31,15.75c-2.06,0.22-4.13,0.11-6.19,0.11
	c-61.14,0-122.4,0-183.54,0c-2.06,0-4.13,0-6.95,0c3.91,14.23,7.06,28.02,15.2,39.97c2.06,3.04,4.89,4.02,8.91,3.69
	c41.27-3.37,82.43-7.06,123.81-9.67c24.87-1.52,49.85-1.74,74.72-1.85c9.88,0,19.87,1.41,29.65,2.93c6.95,0.98,9.88,3.8,9.45,10.64
	c-0.76,11.51-1.95,23.24-5,34.43c-4.45,16.18-10.75,31.82-16.07,47.68c-1.09,3.37-2.93,4.24-6.41,4.24
	c-28.27-0.08-63.99-0.1-80.43-0.11c-4.95,0-8.97,4.01-8.97,8.97v36.98c0,5.81,4.71,10.52,10.52,10.52h56.61
	c6.41,0,12.27,0.98,16.51,6.62c6.41,8.58,2.39,20.63-7.93,23.57c-2.72,0.76-5.76,1.09-8.69,1.09c-79.39,0-158.78,0.11-238.28,0
	c-3.37,0-6.95-0.43-10.1-1.63c-6.41-2.39-10.32-9.34-9.45-16.07c0.76-6.19,6.73-12.27,13.47-13.14c2.5-0.33,5.1-0.33,7.71-0.33
	c12.68,0,21.22-0.02,27.01-0.04C138.32,469.69,143.55,464.43,143.55,457.94z"/>
</svg>
